<svg xmlns="http://www.w3.org/2000/svg" width="112" height="28" viewBox="0 0 112 28">
    <g fill="#4A4A4A" fill-rule="evenodd">
        <path d="M69.223 7.963c-1.815 0-3.24.386-4.667 1.155 0-4.109 0-7.833.13-9.118L56 1.541v.77l.908.13c1.166.256 1.556.898 1.815 2.44.26 3.082.13 19.522 0 22.22 2.333.513 4.796.899 7.26.899C72.852 28 77 23.761 77 17.082c0-5.266-3.37-9.12-7.777-9.12zm-2.982 18.623c-.518 0-1.167 0-1.555-.127-.13-1.799-.26-9.377-.13-16.055.777-.258 1.296-.386 1.944-.386 2.852 0 4.408 3.34 4.408 7.45 0 5.137-1.944 9.118-4.667 9.118zM0 0v1.157l1.3.128c1.689.258 2.339 1.286 2.598 3.729.39 4.628.26 12.986 0 16.972-.26 2.442-.91 3.6-2.598 3.728l-1.3.258V27h14.684v-1.028l-1.56-.258c-1.689-.128-2.339-1.286-2.598-3.728-.13-1.672-.26-4.372-.26-7.715l3.119.129c1.95 0 2.858 1.542 3.248 3.729h1.17V9h-1.17c-.39 2.186-1.299 3.728-3.248 3.728l-3.12.129c0-4.371.13-8.486.26-10.929h4.548c3.509 0 5.328 2.186 6.627 6.043l1.3-.386L22.87 0H0z"/>
        <path d="M29.686 7C35.896 7 39 11.304 39 17c0 5.442-3.477 10-9.686 10C23.104 27 20 22.696 20 17c0-5.443 3.477-10 9.686-10zm-.372 1.266c-2.732 0-3.477 3.797-3.477 8.734 0 4.81 1.242 8.734 3.726 8.734 2.855 0 3.6-3.797 3.6-8.734 0-4.81-1.24-8.734-3.85-8.734zM77 17.126C77 11.937 80.367 7 86.972 7 92.41 7 95 10.925 95 16.114H82.956c-.128 4.684 2.202 8.101 6.864 8.101 2.072 0 3.108-.507 4.403-1.392l.518.633C93.445 25.227 90.597 27 86.97 27 81.145 27 77 22.949 77 17.126zm5.956-2.404l6.087-.127c0-2.532-.388-6.329-2.59-6.329-2.201 0-3.367 3.544-3.497 6.456zM110.855 8.013C109.33 7.38 107.296 7 105.008 7c-4.703 0-7.626 2.784-7.626 6.076 0 3.291 2.16 4.684 5.211 5.696 3.177 1.14 4.068 2.026 4.068 3.544 0 1.52-1.144 2.911-3.178 2.911-2.415 0-4.195-1.391-5.593-5.19l-.89.254.128 5.57c1.525.632 4.321 1.139 6.736 1.139 4.958 0 8.136-2.532 8.136-6.455 0-2.66-1.4-4.178-4.704-5.444-3.559-1.392-4.83-2.278-4.83-3.924s1.145-2.785 2.67-2.785c2.287 0 3.813 1.392 4.957 4.81l.89-.253-.128-4.936M57 7.586c-2.24-1.295-6.194-.648-8.303 4.012l.133-4.53L40 8.75v.777l.922.13c1.187.13 1.713.776 1.846 2.459.263 3.106.131 8.542 0 11.26-.133 1.553-.66 2.33-1.846 2.46l-.922.129V27h12.256v-1.035l-1.581-.13c-1.318-.13-1.713-.906-1.845-2.46-.264-2.457-.264-7.376-.133-10.482.66-.907 3.559-1.684 6.194 0L57 7.586"/>
    </g>
</svg>
