<svg xmlns="http://www.w3.org/2000/svg" width="183" height="22" viewBox="0 0 183 22">
    <g fill="#4A4A4A" fill-rule="evenodd">
        <path d="M14.604 1h6.76l-1.267 7.035h5.875L27.24 1H34l-3.604 20h-6.76l1.34-7.433H19.1L17.76 21H11l3.604-20M38.26 1h6.59l-1.97 11.851c-.356 2.398.177 3.81 2.11 3.81 1.867 0 2.97-1.277 3.4-3.795l2.02-11.839H57l-2.262 13.25C53.684 20.452 49.96 22 44.756 22c-8.538 0-9.211-5.095-8.579-8.74L38.26 1M175.425 1H183v20h-11l3.425-20M60.52 1H75l-.973 5.531h-7.879l-.6 3.412h5.717l-.899 5.11h-5.717L63.602 21H57l3.52-20M77.52 1H92l-.973 5.531h-7.879l-.6 3.412h5.717l-.899 5.11h-5.717L80.602 21H74l3.52-20M165.903 6.531L163.366 21h-6.578l2.537-14.469H154L154.969 1H172l-.97 5.531h-5.127M95.573 1.009c3.114 0 6.207-.009 9.321-.009 3.042 0 5.332 1.284 6.414 3.232 1.274 2.293.68 6.528-.89 8.595-1.36 1.793-3.614 2.975-6.276 2.975h-4.398L98.814 21H92l3.573-19.991zm5.87 5.284l-.805 4.504h2.007c2.266 0 2.597-1.395 2.769-2.108.222-1.238-.585-2.396-2.242-2.396h-1.729zM0 1h11L7.577 21H0V1M124.374 5.35c2.337 0 2.804 2.244 2.338 5.147-.489 3.04-1.668 5.188-3.884 5.188-2.371 0-3.056-2.283-2.59-5.185.536-3.108 1.746-5.15 4.136-5.15zM124.8 0c7.057 0 9.805 4.83 9.089 10.63-.717 5.799-4.135 10.37-11.685 10.37-6.846 0-9.818-4.77-9.1-10.569C113.82 4.632 117.04 0 124.8 0zM139.287 1.384c1.655-.977 3.744-1.404 5.657-1.383 3.222.036 6.462 1.255 7.056 4.458l-5.754 1.531c-.32-.768-1.134-1.233-1.951-1.24-1.317-.014-2.063 1.156-1.316 1.963.742.701 2.706 1.188 3.595 1.535.935.367 1.772.831 2.503 1.535 1.216 1.17 1.752 2.793 1.7 4.42-.152 4.962-4.494 6.8-8.875 6.797-3.818-.003-7.56-1.55-7.902-4.827l5.614-1.513c.692.991 1.315 1.566 2.623 1.566.737 0 1.345-.334 1.538-.906.203-.598-.052-1.375-1.238-1.766-1.071-.352-2.614-.726-3.863-1.557-1.894-1.28-2.637-3.633-2.38-5.822.231-1.957 1.264-3.77 2.993-4.79"/>
    </g>
</svg>
