<svg xmlns="http://www.w3.org/2000/svg" width="79" height="25" viewBox="0 0 79 25">
    <path fill="#4A4A4A" fill-rule="evenodd" d="M49.992 19.584c-.633-1.161-.992-2.52-.992-4.089 0-6.58 6.352-9.485 12.813-9.485 0 0 10.132-.602 11.085 7.745l-7.822.787c-.096-1.987-.541-4.088-3.189-4.088-3.362 0-3.622 2.564-3.622 5.027 0 2.513.26 5.077 3.622 5.077 1.766 0 3.323-.925 3.323-2.884l.256.002L73 17.68l-.063.616C71.65 24.093 65.935 25 61.813 25c-4.92 0-9.776-1.685-11.813-5.401V25H35.806v-5.414H38.5V13.92c0-1.708-1.308-2.473-2.992-2.473-2.137 0-3.745 1.463-3.745 3.447v4.693h2.772V25H20v-5.414h2.624V11.42H20V6h11.462v3.738a3.47 3.47 0 0 0 .524-.524c2.097-2.23 4.495-3.03 7.64-3.03 4.418 0 8.015 1.672 8.015 6.238v7.162h2.351zM75.5 25C73.567 25 72 23.658 72 22c0-1.655 1.567-3 3.5-3s3.5 1.345 3.5 3c0 1.658-1.567 3-3.5 3zM0 0h19v5.862h-3.563v13.686H19V25H0v-5.447h3.563V5.863H0V0z"/>
</svg>
