<?xml version="1.0" encoding="UTF-8"?>
<svg width="312px" height="416px" viewBox="0 0 312 416" version="1.1" xmlns="http://www.w3.org/2000/svg" xmlns:xlink="http://www.w3.org/1999/xlink">
    <!-- Generator: Sketch 51.2 (57519) - http://www.bohemiancoding.com/sketch -->
    <title>logo/img bw</title>
    <desc>Created with Sketch.</desc>
    <defs>
        <path d="M0.0582633053,253.417892 L0.0582633053,252.475266 C10.7822228,159.405979 47.3514847,72.5524814 103.391148,0.607416455 C105.388609,10.8956539 109.470924,20.4212248 115.098189,28.8212316 C53.5886461,117.780573 27.9168627,199.112278 22.5498413,217.780146 C22.4692437,218.055715 22.3896172,218.332254 22.3099907,218.608794 C21.7069655,220.73087 21.3942857,221.930178 21.3942857,221.930178 L21.5554809,221.870019 C20.6679365,225.297167 19.7706816,228.724316 19.1686275,232.188336 C17.8878058,239.547196 13.7802428,246.112339 7.5480112,250.238114 L1.82461251,254.026219 C1.1473904,254.473653 0.287767516,254.105776 0.0582633053,253.417892 Z" id="path-1"></path>
        <linearGradient x1="39.7821469%" y1="41.4763185%" x2="-7.47120538%" y2="99.5558543%" id="linearGradient-3">
            <stop stop-color="#62609B" offset="0%"></stop>
            <stop stop-color="#492558" offset="100%"></stop>
        </linearGradient>
        <path d="M38.8345343,100.024339 C71.7319716,84.8537284 101.555139,63.3749771 126.792473,36.9409101 C130.638752,32.9126984 134.357182,28.7654462 138.070695,24.6141587 C134.290307,25.0832593 129.827404,25.3606843 124.58069,25.3606843 C102.22487,25.3606843 82.1339385,15.7133545 67.8729078,0.313742504 C44.0684634,37.057933 21.0478298,79.0984198 0.773976359,126.664205 C12.0620331,115.38158 24.9550827,106.424282 38.8345343,100.024339" id="path-4"></path>
        <linearGradient x1="79.7545968%" y1="-0.342525909%" x2="-29.0651615%" y2="196.257765%" id="linearGradient-6">
            <stop stop-color="#62609B" offset="0%"></stop>
            <stop stop-color="#492558" offset="100%"></stop>
        </linearGradient>
        <path d="M126.57251,0.04 L126.660433,0.0399999997 C126.50769,0.579063629 126.347687,1.06726898 126.195311,1.605 C82.2679125,27.078 44.2867122,56.66 11.576119,87.931 C7.19328784,83.585 3.47503762,78.567 0.807706037,72.917 C38.5924838,43.2394226 80.7587692,18.5156908 126.57251,0.0399999997 L126.57251,0.04 Z M126.189305,1.625 C115.233729,40.223 102.604689,67.573 88.5403955,85.254 C88.5213788,85.233 88.4943552,85.203 88.4763395,85.182 C78.7718565,96.282 64.5374138,103.329 48.6265057,103.329 C37.3716675,103.329 27.0226212,99.729 18.4691444,93.733 C74.1428101,35.263 119.718649,5.698 126.189305,1.625 Z" id="path-7"></path>
        <linearGradient x1="99.6758953%" y1="-6.6563355%" x2="63.23464%" y2="30.0016039%" id="linearGradient-9">
            <stop stop-color="#3392C4" offset="0%"></stop>
            <stop stop-color="#0A9D72" offset="100%"></stop>
        </linearGradient>
        <path d="M28.4530214,117.479855 C67.0743912,140.385277 109.824405,120.368573 142.113736,72.9391802 C148.853531,62.2543144 155.196923,51.318051 161.113637,40.1407473 C158.837396,40.7584132 156.520473,41.272507 154.151517,41.6397169 C153.92446,41.6802041 153.715379,41.7583539 153.488322,41.7960165 C143.434448,43.4597597 133.576411,42.4579358 124.577404,39.3667819 C114.466765,36.1447506 105.515062,30.4435819 98.266282,23.0692543 C74.6438882,48.0216362 49.2447771,78.3541136 24.4662872,114.44237 C25.8040286,115.447019 27.045271,116.569363 28.4530214,117.479855 Z M15.3471293,106.305376 C9.19011306,99.7916379 4.08985575,92.2741926 0.685899935,83.829307 C24.9062092,53.1051391 52.854976,25.2574486 83.9314464,0.930265021 C86.0865913,6.56834897 89.0875218,11.7676642 92.6532554,16.5206782 C62.2494399,45.6856165 36.6715218,76.3419918 15.3471293,106.305376 Z" id="path-10"></path>
        <linearGradient x1="17.0575504%" y1="110.49952%" x2="78.3739157%" y2="-0.767233266%" id="linearGradient-12">
            <stop stop-color="#DA2E5C" offset="0%"></stop>
            <stop stop-color="#E05A32" offset="100%"></stop>
        </linearGradient>
    </defs>
    <g id="Page-1" stroke="none" stroke-width="1" fill="none" fill-rule="evenodd" opacity="0.200000003">
        <g id="1.0.0---Notes-Manager---empty-state" transform="translate(-577.000000, -312.000000)">
            <g id="logo/img-bw" style="mix-blend-mode: luminosity;" transform="translate(577.000000, 312.000000)">
                <g id="logo" opacity="0.345591518" style="mix-blend-mode: luminosity;">
                    <polyline id="Fill-1" fill="#4A275E" points="0 416 69.3333333 416 4.00694005 404.444444 0 416"></polyline>
                    <g id="Group-4" transform="translate(0.000000, 161.777778)">
                        <mask id="mask-2" fill="white">
                            <use xlink:href="#path-1"></use>
                        </mask>
                        <g id="Clip-3"></g>
                        <polygon id="Fill-2" fill="url(#linearGradient-3)" mask="url(#mask-2)" points="0.0582633053 254.222222 312.253445 254.222222 312.253445 -157.152027 0.0582633053 -157.152027"></polygon>
                    </g>
                    <g id="Group-7" transform="translate(57.777778, 196.444444)">
                        <mask id="mask-5" fill="white">
                            <use xlink:href="#path-4"></use>
                        </mask>
                        <g id="Clip-6"></g>
                        <path d="M38.8345343,100.024339 C71.7319716,84.8537284 101.555139,63.3749771 126.792473,36.9409101 C130.638752,32.9126984 134.357182,28.7654462 138.070695,24.6141587 C134.290307,25.0832593 129.827404,25.3606843 124.58069,25.3606843 C102.22487,25.3606843 82.1339385,15.7133545 67.8729078,0.313742504 C44.0684634,37.057933 21.0478298,79.0984198 0.773976359,126.664205 C12.0620331,115.38158 24.9550827,106.424282 38.8345343,100.024339" id="Fill-5" fill="url(#linearGradient-6)" mask="url(#mask-5)"></path>
                    </g>
                    <g id="Group-10" transform="translate(184.888889, 0.000000)">
                        <mask id="mask-8" fill="white">
                            <use xlink:href="#path-7"></use>
                        </mask>
                        <g id="Clip-9"></g>
                        <polygon id="Fill-8" fill="url(#linearGradient-9)" mask="url(#mask-8)" points="-195.110551 424 126.671727 424 126.671727 0.04 -195.110551 0.04"></polygon>
                    </g>
                    <g id="Group-13" transform="translate(104.000000, 69.333333)">
                        <mask id="mask-11" fill="white">
                            <use xlink:href="#path-10"></use>
                        </mask>
                        <g id="Clip-12"></g>
                        <path d="M28.4530214,117.479855 C67.0743912,140.385277 109.824405,120.368573 142.113736,72.9391802 C148.853531,62.2543144 155.196923,51.318051 161.113637,40.1407473 C158.837396,40.7584132 156.520473,41.272507 154.151517,41.6397169 C153.92446,41.6802041 153.715379,41.7583539 153.488322,41.7960165 C143.434448,43.4597597 133.576411,42.4579358 124.577404,39.3667819 C114.466765,36.1447506 105.515062,30.4435819 98.266282,23.0692543 C74.6438882,48.0216362 49.2447771,78.3541136 24.4662872,114.44237 C25.8040286,115.447019 27.045271,116.569363 28.4530214,117.479855 Z M15.3471293,106.305376 C9.19011306,99.7916379 4.08985575,92.2741926 0.685899935,83.829307 C24.9062092,53.1051391 52.854976,25.2574486 83.9314464,0.930265021 C86.0865913,6.56834897 89.0875218,11.7676642 92.6532554,16.5206782 C62.2494399,45.6856165 36.6715218,76.3419918 15.3471293,106.305376 Z" id="Fill-11" fill="url(#linearGradient-12)" mask="url(#mask-11)"></path>
                    </g>
                </g>
            </g>
        </g>
    </g>
</svg>