<svg xmlns="http://www.w3.org/2000/svg" width="156" height="28" viewBox="0 0 156 28">
    <g fill="#4A4A4A" fill-rule="evenodd">
        <path d="M23.036 27.027V9.51l-6.634 17.517h-2.989L6.78 9.51v17.517H0V.531h9.403l5.54 14.573L20.339.531h9.404v26.496h-6.706M43.228 27.027v-1.914c-1.166 1.399-3.5 2.356-5.904 2.356-2.916 0-6.562-2.06-6.562-6.33 0-4.636 3.646-6.182 6.562-6.182 2.55 0 4.738.81 5.904 2.281v-1.913c0-1.692-1.384-2.797-3.863-2.797-1.896 0-3.79.736-5.321 2.06l-2.26-4.267c2.405-2.135 5.685-2.945 8.6-2.945 4.593 0 8.822 1.693 8.822 7.655v11.996h-5.978zm0-4.931v-1.693c-.656-.883-2.041-1.325-3.354-1.325-1.603 0-3.06.736-3.06 2.208 0 1.546 1.457 2.208 3.06 2.208 1.313 0 2.698-.515 3.354-1.398zM49.715 24.524l2.553-4.341c1.385 1.25 4.446 2.575 6.706 2.575 1.823 0 2.552-.515 2.552-1.325 0-2.355-11.082.074-11.082-7.727 0-3.386 2.917-6.33 8.165-6.33 3.208 0 5.905 1.03 7.947 2.576l-2.333 4.342c-1.167-1.103-3.28-2.134-5.614-2.134-1.385 0-2.332.589-2.332 1.325 0 2.134 11.008-.074 11.008 7.801 0 3.68-3.208 6.256-8.603 6.256-3.499-.073-6.997-1.25-8.967-3.018M80.915 27.027V15.84c0-2.355-1.238-3.091-3.133-3.091-1.75 0-2.917 1.03-3.646 1.84v12.364h-6.05V.458h6.05v9.641c1.167-1.325 3.354-2.796 6.561-2.796 4.301 0 6.27 2.429 6.27 5.961v13.69h-6.052v.073M100.233 27.027v-1.914c-1.165 1.399-3.498 2.356-5.904 2.356-2.916 0-6.56-2.06-6.56-6.33 0-4.636 3.644-6.182 6.56-6.182 2.551 0 4.739.81 5.904 2.281v-1.913c0-1.692-1.384-2.797-3.863-2.797-1.896 0-3.79.736-5.321 2.06l-2.26-4.267c2.405-2.135 5.685-2.945 8.602-2.945 4.592 0 8.82 1.693 8.82 7.655v11.996h-5.978zm0-4.931v-1.693c-.656-.883-2.04-1.325-3.353-1.325-1.603 0-3.06.736-3.06 2.208 0 1.546 1.457 2.208 3.06 2.208 1.312 0 2.697-.515 3.353-1.398zM108.398 27.027V.532h6.05v9.567c1.531-1.913 3.572-2.723 5.614-2.723 4.738 0 8.383 3.753 8.383 10.01 0 6.476-3.718 10.083-8.383 10.083-2.114 0-4.083-.884-5.613-2.724v2.208h-6.05v.074zm9.622-4.931c2.406 0 4.229-1.766 4.229-4.71 0-2.87-1.823-4.637-4.229-4.637-1.311 0-2.843.736-3.644 1.766v5.888c.801 1.03 2.406 1.693 3.644 1.693zM129.32 27.027h6.05V.531h-6.05zM136.244 17.385c0-5.593 4.156-10.009 10.06-10.009 5.614 0 9.696 4.195 9.696 10.672v1.398h-13.559c.438 1.693 2.041 3.165 4.738 3.165 1.312 0 3.572-.589 4.665-1.619l2.625 3.974c-1.895 1.693-5.03 2.576-7.946 2.576-5.832-.073-10.279-3.9-10.279-10.157zm10.06-5.078c-2.624 0-3.644 1.62-3.863 2.944h7.8c-.146-1.324-1.167-2.944-3.936-2.944z"/>
    </g>
</svg>
