<svg xmlns="http://www.w3.org/2000/svg" xmlns:xlink="http://www.w3.org/1999/xlink" width="292" height="41" viewBox="0 0 292 41">
    <defs>
        <path id="a" d="M.03.02h21.998v31.528H.03z"/>
        <path id="c" d="M.034.02H87.01V32.48H.034z"/>
    </defs>
    <g fill="none" fill-rule="evenodd">
        <g>
            <mask id="b" fill="#fff">
                <use xlink:href="#a"/>
            </mask>
            <path fill="#4A4A4A" d="M17.93.048c.812.073 2.086.48 3.046 1.34 1.02 1.01 1.252 2.545.895 3.94-.318 1.242-.674 1.888-1.916 2.746-1.255.865-2.772.792-2.772.792v5.383l2.565 2.12-2.566 2.113v7.333s2.57-1.504 4.165-4.872c0 0 .065-.184.215-.53.142.901.06 2.728-.939 5.073-.753 1.766-2.123 3.465-3.841 4.433-3.045 1.724-5.328 1.888-7.776 1.37-2.867-.602-5.47-2.247-7.247-5.115C.511 24.158-.048 21.808.003 19.28c.1-4.964 3.717-9.245 7.89-10.84.51-.195.711-.323 1.432-.39-.332.231-.716.53-1.188.846-1.344.902-2.496 2.698-2.987 4.08l8.102-3.69v11.566l-6.534 3.342c.745 1.054 3.007 2.65 4.942 2.875 3.291.372 5.223-1.096 5.223-1.096v-7.491l-2.552-2.113 2.553-2.113v-5.39c-1.392-.164-3.082-.633-4.07-.883-1.453-.366-6.298-1.754-7.06-1.87-.76-.115-1.7-.079-2.267.439-.569.524-.92 1.443-.679 2.271.137.469.453.743.692 1.01 0 0-.28-.024-.787-.334-.914-.56-1.61-1.656-1.694-3.008-.107-1.772.607-3.368 2.039-4.44C4.3 1.236 5.708.712 7.344.95c2.386.347 5.594 1.724 8.452 2.424 1.107.274 1.964.365 2.742-.098.362-.268 1-.956.479-1.87C18.409.335 17.242.359 16.255.17c.85-.182 1.036-.182 1.675-.121zM8.296 23.043V11.874l-3.29 1.498s-.838 1.919-.692 4.702c.116 2.174 1.307 4.775 2.221 5.865l1.761-.896z" mask="url(#b)"/>
        </g>
        <path fill="#4A4A4A" d="M49.448 11s-2.455 1.55-4.106 2.576c-1.65 1.02-3.865 2.146-3.865 2.146V26.48L40 27.717l.196.239 1.44-1.21L46.152 31 54 24.52l-.186-.234-4.337 3.547-3.565-3.479v-1.297l7.161-5.49L49.448 11zm.105 8.884l-3.64 2.78v-9.248l3.64 6.468zM28.5 34.82c1.047.255 2.896.398 5.125-.709 2.468-1.224 3.709-3.823 3.692-6.487l.105-3.776V15.6L39 14.405l-.184-.233-1.553 1.16-3.583-3.948-4.597 3.912V2l-5.744 4.4c.255.16 1.07.31 1.093 1.445v18.626L22 28.261l.166.25 1.175-.87 3.271 3.016 5.15-4.061-.188-.232-1.21.95-1.281-1.26.012-10.377 1.5-1.267 2.238 2.754s-.005 6.72.001 8.95c-.016 2.378-.024 5.346-1.285 6.779-1.26 1.44-1.766 1.552-3.05 1.927M64.765 33.908c-2.087-.238-2.963-1.502-2.94-2.499.016-.64.596-1.891 1.865-2.061 1.268-.176 2.565.42 3.66 1.702l4.82-5.32-.233-.206-1.295 1.447c-1.315-1.496-3.181-2.438-5.04-2.711V8.052l12.52 22.78s.12.26.634.26c.443 0 .337-.359.337-.359L79.09 7.808c1.017-.042 2.57-.601 3.324-1.373C84.825 3.961 83.84 1.261 83.576 1c-.147 1.18-1.055 2.365-2.57 2.37-1.989.007-3.201-1.458-3.201-1.458l-4.817 5.483.23.207 1.38-1.575c1.685 1.55 2.916 1.696 4.188 1.781V21.11L69.498 4.258c-.84-1.392-2.121-2.614-4.128-2.632-2.307-.012-3.958 2.018-4.155 3.769-.223 1.976.023 2.432.023 2.432s.34-2.2 1.703-2.183c1.225.019 1.862 1.143 2.353 1.988v4.882c-1.263.085-4.55.231-4.751 3.647-.015 1.271.775 2.602 1.467 3.052.89.584 1.584.571 1.584.571s-1.066-.565-.747-1.683c.286-1.003 2.373-1.167 2.449-.748v6.888c-1.005-.012-4.222.098-5.673 2.852-.874 1.665-.823 3.526.112 4.838.762 1.07 2.33 2.439 5.029 1.977M90.449 11s-2.456 1.55-4.107 2.576c-1.651 1.02-3.865 2.146-3.865 2.146V26.48L81 27.717l.196.239 1.44-1.21L87.152 31 95 24.52l-.186-.234-4.337 3.547-3.565-3.479v-1.297l7.161-5.49L90.45 11zm.104 8.884l-3.641 2.78v-9.248l3.641 6.468z"/>
        <path fill="#1A1919" d="M101.17 29.977l-3.841-3.198-1.688 1.227-.171-.241 1.716-1.257v-8.937c.083-3.681-3.366-2.767-3.179-6.672.083-1.716 1.741-3.014 2.578-3.444C97.482 7 98.451 7 98.451 7s-1.572.985-1.19 2.4c.588 2.183 4.314 2.378 4.384 5.286v10.14l2.75 2.207.724-.566V15.488l-1.484-1.474 3.82-3.386 3.488 3.097-1.33 1.445v9.728l3.266 2.702.581-.373v-11.71l-1.486-1.391 3.827-3.504 3.577 2.961 1.429-1.268.193.224-3.216 2.832v9.544L109.554 30l-4.209-3.34-4.175 3.317"/>
        <path fill="#4A4A4A" d="M272.449 11s-2.456 1.55-4.106 2.576c-1.652 1.02-3.866 2.146-3.866 2.146V26.48L263 27.717l.197.239 1.44-1.21L269.153 31 277 24.52l-.185-.234-4.338 3.547-3.565-3.479v-1.297l7.162-5.49L272.449 11zm.104 8.884l-3.64 2.78v-9.248l3.64 6.468zM235 15.269l.192.223 1.48-1.268 2.194 2.472v8.49l-1.066.968L241.22 30l3.51-3.44-1.442-1.486v-10.27l.873-.692 2.426 2.818v8.467l-.912.904 3.22 3.606 3.445-3.43-1.266-1.321-.033-10.31.931-.751 2.53 2.77v8.42l-.832.828 3.556 3.858L262 25.585l-.203-.217-1.158 1.062-1.779-1.96v-9.612l1.717-1.298-.179-.235-1.718 1.298L255.43 11l-4.645 3.652-3.253-3.522-4.486 3.493-3.283-3.476L235 15.27"/>
        <path fill="#4A4A4A" d="M226 14.945l.204.225 1.319-1.081 2.064 2.315v9.763l-1.456 1.205.203.225 1.528-1.235L233.19 30l4.81-4.069-.203-.225-1.416 1.182-1.989-2.174V15.17l1.677-1.376-.202-.225-1.594 1.3L230.771 11 226 14.945"/>
        <g transform="translate(204)">
            <mask id="d" fill="#fff">
                <use xlink:href="#c"/>
            </mask>
            <path fill="#4A4A4A" d="M22.67 7.165l3.473-3.234 2.824 3.185-3.488 3.221-2.809-3.172M18 .048c.815.072 2.091.48 3.053 1.337 1.022 1.009 1.254 2.54.896 3.932-.318 1.24-.674 1.884-1.92 2.741-1.256.863-2.777.79-2.777.79v5.372l2.57 2.116-2.57 2.108v7.319s2.575-1.501 4.173-4.863c0 0 .066-.182.214-.529.143.9.062 2.724-.94 5.063-.755 1.763-2.128 3.458-3.85 4.425-3.05 1.72-5.338 1.884-7.79 1.367-2.873-.601-5.481-2.243-7.262-5.105-1.251-2.012-1.812-4.357-1.76-6.88.1-4.954 3.724-9.226 7.907-10.819.509-.194.711-.321 1.434-.389-.333.232-.718.53-1.19.845-1.346.9-2.501 2.693-2.994 4.073l8.118-3.684V20.81l-6.547 3.336c.747 1.051 3.013 2.644 4.954 2.868 3.297.371 5.232-1.093 5.232-1.093v-7.477l-2.555-2.108 2.555-2.11V8.849c-1.393-.164-3.086-.632-4.076-.881C11.418 7.602 6.562 6.217 5.8 6.1c-.762-.116-1.704-.08-2.273.438-.57.522-.921 1.44-.68 2.266.138.468.454.742.694 1.009 0 0-.281-.024-.789-.334-.917-.56-1.614-1.653-1.697-3.002-.107-1.769.608-3.361 2.042-4.43C4.344 1.232 5.753.71 7.393.947c2.39.346 5.605 1.72 8.47 2.418 1.108.274 1.967.365 2.746-.097.364-.268 1.003-.955.48-1.866C18.48.333 17.312.357 16.322.169c.852-.182 1.039-.182 1.679-.121zM8.349 22.997V11.85L5.05 13.345s-.84 1.915-.694 4.692c.116 2.17 1.309 4.766 2.226 5.854l1.765-.894zM77.364 32.454c-.527.157-2.817-.407-3.367-2.82-.535-2.352 1.07-3.945 3.497-6.448l-2.864-2.663v-5.081s2.105-1.07 3.754-2.115c1.65-1.051 3.336-2.188 3.336-2.188s1.23 1.58 2.621 1.453c2.178-.195 2.076-1.94 2.013-2.352.372.674 1.366 2.68-2.459 7.165l3.115 2.559v6.6s-3.619 1.915-7.042 4.456c0 0-1.91-2.431-3.57-1.27-1.12.783-.608 2.108.966 2.704zm-2.693-5.087s1.645-2.765 4.47-2.17c2.71.571 3.65 3.483 3.65 3.483v-6.704l-1.89-1.672c-2.077 2.122-5.772 5.19-6.23 7.063zm4.193-14.003v5.281l1.73 1.532s3.755-3.058 5.118-5.89c0 0-1.687 2.328-3.96 1.617-1.901-.59-2.888-2.54-2.888-2.54z" mask="url(#d)"/>
        </g>
        <path fill="#4A4A4A" d="M164.37 15.501l1.426-1.32.204.232-1.389 1.297v10.562s-2.638 1.407-4.479 2.453c-1.84 1.046-3.805 2.275-3.805 2.275l-4.84-4.104-1.28 1.12-.207-.233 1.346-1.18V15.245h.017s2.283-1.04 4.209-2.135c1.722-.978 3.65-2.11 3.65-2.11l5.147 4.501zm-8.432 9.31l4.09 3.724v-11.4l-4.09-3.81V24.81zM173.353 14.19l2.942-3.032s.405.358.784.545c.215.106 1.106.57 1.923.117.443-.246.506-.31.992-.774.1 2.357-1.023 4.016-2.423 4.702-.574.282-2.248.82-3.999-1.33V25.31l1.863 1.66 1.554-1.296.18.229L172.3 30l-3.705-3.4-1.333 1.266-.218-.234 2.03-1.847.017-9.404-1.557-2.08-1.34 1.19-.193-.217L170.717 11l2.636 3.19M187 19.317l5.818-8.299s.767.89 2.104 1.238c1.817.464 3.403-1.256 3.403-1.256-.304 2.22-1.451 4.738-3.82 5.122-2.087.342-4.029-1.25-4.029-1.25l-.377.573 8.077 11.964 1.616-1.39.208.231-5.543 4.75L187 19.317"/>
        <path fill="#4A4A4A" d="M182.376 8.187c0-1.792-.735-2.895-1.696-2.817L186.911 1v24.739h.001l1.646 1.731 1.246-1.08.196.233L184.979 31l-3.402-3.19-1.362 1.196-.215-.232 2.376-2.066V8.187M131.36 7.477c0-1.66-.664-2.587-1.738-2.612-1.546-.036-1.913 2.182-1.913 2.182s-.281-1.709 1.125-3.26c.791-.866 2.267-2.084 4.574-1.52 2.383.587 3.06 2.465 3.06 4.125v22.871s.9.11 1.517.25c.717.15 1.395.345 1.395.345V2.278h.297v3.72L144.562 2l3.58 3.235 1.668-1.466.19.23-1.745 1.527v21.266c-.086 1.387-.306 2.799-1.595 3.611-2.875 1.733-6.343-.266-9.431-.72-2.294-.346-5.893-.788-6.797 1.35-.295.703-.274 1.787.766 2.496 2.088 1.419 11.382-2.38 14.57-.872 2.906 1.374 2.895 3.55 2.447 5.047-.756 2.805-4.24 3.296-4.24 3.296s1.704-1.006 1.218-2.672c-.246-.842-.808-1.079-2.632-.873-3.984.46-8.746 2.423-11.946 1.06-1.65-.696-2.816-2.793-2.703-4.852.082-2.963 3.448-4.133 3.448-4.133V18.57c-.097-.436-1.893-.321-2.285.485-.598 1.218.741 1.775.741 1.775s-1.11.17-2.04-.92c-.453-.534-1.4-2.4-.169-4.127 1.011-1.424 2.224-1.672 3.753-1.842V7.477zm8.317 22.466s1.417.381 2.45-.48c1.149-.963 1.028-2.313 1.028-2.313v-8.52s-.665-.872-1.724-.872c-1.057 0-1.754.903-1.754.903v11.282zm3.478-22.363l-2.346-2.096-1.132.908v7.895s.697.896 1.754.896c1.059 0 1.724-.86 1.724-.86V7.58zm0 7.215s-.671.776-1.729.776-1.75-.782-1.75-.782v3.37s.692-.782 1.75-.782 1.73.738 1.73.738v-3.32z"/>
    </g>
</svg>
